ffmpeg version 6.1.1-3ubuntu5 Copyright (c) 2000-2023 the FFmpeg developers
  built with gcc 13 (Ubuntu 13.2.0-23ubuntu3)
  configuration: --prefix=/usr --extra-version=3ubuntu5 --toolchain=hardened --libdir=/usr/lib/x86_64-linux-gnu --incdir=/usr/include/x86_64-linux-gnu --arch=amd64 --enable-gpl --disable-stripping --disable-omx --enable-gnutls --enable-libaom --enable-libass --enable-libbs2b --enable-libcaca --enable-libcdio --enable-libcodec2 --enable-libdav1d --enable-libflite --enable-libfontconfig --enable-libfreetype --enable-libfribidi --enable-libglslang --enable-libgme --enable-libgsm --enable-libharfbuzz --enable-libmp3lame --enable-libmysofa --enable-libopenjpeg --enable-libopenmpt --enable-libopus --enable-librubberband --enable-libshine --enable-libsnappy --enable-libsoxr --enable-libspeex --enable-libtheora --enable-libtwolame --enable-libvidstab --enable-libvorbis --enable-libvpx --enable-libwebp --enable-libx265 --enable-libxml2 --enable-libxvid --enable-libzimg --enable-openal --enable-opencl --enable-opengl --disable-sndio --enable-libvpl --disable-libmfx --enable-libdc1394 --enable-libdrm --enable-libiec61883 --enable-chromaprint --enable-frei0r --enable-ladspa --enable-libbluray --enable-libjack --enable-libpulse --enable-librabbitmq --enable-librist --enable-libsrt --enable-libssh --enable-libsvtav1 --enable-libx264 --enable-libzmq --enable-libzvbi --enable-lv2 --enable-sdl2 --enable-libplacebo --enable-librav1e --enable-pocketsphinx --enable-librsvg --enable-libjxl --enable-shared
  libavutil      58. 29.100 / 58. 29.100
  libavcodec     60. 31.102 / 60. 31.102
  libavformat    60. 16.100 / 60. 16.100
  libavdevice    60.  3.100 / 60.  3.100
  libavfilter     9. 12.100 /  9. 12.100
  libswscale      7.  5.100 /  7.  5.100
  libswresample   4. 12.100 /  4. 12.100
  libpostproc    57.  3.100 / 57.  3.100
Routing option strict to both codec and muxer layer
[Parsed_scale_0 @ 0x5e6277dca1c0] w:1280 h:720 flags:'' interl:0
[Parsed_scale_2 @ 0x5e6277dd7880] w:1280 h:720 flags:'' interl:0
-vsync is deprecated. Use -fps_mode
Passing a number to -vsync is deprecated, use a string argument as described in the manual.
[h264 @ 0x5e6277de1a80] Reinit context to 848x480, pix_fmt: yuv420p
Input #0, mov,mp4,m4a,3gp,3g2,mj2, from '/var/www/html/project/media/video/original/d834a2b9-374d-454f-8b03-dd9e32954dc0.mov':
  Metadata:
    major_brand     : qt  
    minor_version   : 0
    compatible_brands: qt  
    creation_time   : 2026-03-16T16:04:31.000000Z
    com.apple.quicktime.creationdate: 2026-03-16T16:08:15+01:00
  Duration: 00:00:18.58, start: 0.000000, bitrate: 1299 kb/s
  Stream #0:0[0x1](und): Audio: aac (LC) (mp4a / 0x6134706D), 44100 Hz, stereo, fltp, 64 kb/s (default)
    Metadata:
      creation_time   : 2026-03-16T16:04:31.000000Z
      handler_name    : Core Media Audio
      vendor_id       : [0][0][0][0]
  Stream #0:1[0x2](und): Video: h264 (Baseline), 1 reference frame (avc1 / 0x31637661), yuv420p(tv, bt709, progressive, left), 848x480, 1230 kb/s, 29.82 fps, 30 tbr, 600 tbn (default)
    Metadata:
      creation_time   : 2026-03-16T16:04:31.000000Z
      handler_name    : Core Media Video
      vendor_id       : [0][0][0][0]
      encoder         : 'avc1'
Input #1, png_pipe, from '/var/www/html/project/static/images/templates/logo.png':
  Duration: N/A, bitrate: N/A
  Stream #1:0: Video: png, 1 reference frame, rgba(pc, gbr/unknown/unknown), 1920x1080 [SAR 2835:2835 DAR 16:9], 25 fps, 25 tbr, 25 tbn
[out#0/mp4 @ 0x5e6278c5f8c0] Creating output stream from unlabeled output of complex filtergraph 0. This overrides automatic video mapping.
[vost#0:0/libx264 @ 0x5e6278c60640] Created video stream from complex filtergraph 0:[overlay:default]
[vost#0:0/libx264 @ 0x5e6278c60640] 
[out#0/mp4 @ 0x5e6278c5f8c0] No explicit maps, mapping streams automatically...
[aost#0:1/aac @ 0x5e6278c62040] Created audio stream from input stream 0:0
Stream mapping:
  Stream #0:1 (h264) -> scale:default (graph 0)
  Stream #1:0 (png) -> scale:default (graph 0)
  overlay:default (graph 0) -> Stream #0:0 (libx264)
  Stream #0:0 -> #0:1 (aac (native) -> aac (native))
Press [q] to stop, [?] for help
[graph_1_in_0_0 @ 0x5e6277de4f40] tb:1/44100 samplefmt:fltp samplerate:44100 chlayout:stereo
[h264 @ 0x5e6277dcff80] Reinit context to 848x480, pix_fmt: yuv420p
[in#1/png_pipe @ 0x5e6277ee3000] EOF while reading input
[in#1/png_pipe @ 0x5e6277ee3000] Terminating demuxer thread
[vist#1:0/png @ 0x5e6277dcf400] Decoder thread received EOF packet
[vist#1:0/png @ 0x5e6277dcf400] Decoder returned EOF, finishing
[vist#1:0/png @ 0x5e6277dcf400] Terminating decoder thread
[Parsed_scale_0 @ 0x5e6277e4c740] w:1280 h:720 flags:'' interl:0
[Parsed_scale_2 @ 0x5e6277e4db80] w:1280 h:720 flags:'' interl:0
[graph 0 input from stream 0:1 @ 0x5e6277e4d800] w:848 h:480 pixfmt:yuv420p tb:1/600 fr:30/1 sar:0/1
[graph 0 input from stream 1:0 @ 0x5e6277e4d280] w:1920 h:1080 pixfmt:rgba tb:1/25 fr:25/1 sar:2835/2835
[Parsed_scale_0 @ 0x5e6277e4c740] w:848 h:480 fmt:yuv420p sar:0/1 -> w:1280 h:720 fmt:yuv420p sar:0/1 flags:0x00000004
[Parsed_setsar_1 @ 0x5e6277e50280] w:1280 h:720 sar:0/1 dar:16/9 -> sar:1/1 dar:16/9
[Parsed_scale_2 @ 0x5e6277e4db80] w:1920 h:1080 fmt:rgba sar:2835/2835 -> w:1280 h:720 fmt:yuva420p sar:1/1 flags:0x00000004
[Parsed_setsar_3 @ 0x5e6277e4c480] w:1280 h:720 sar:1/1 dar:16/9 -> sar:1/1 dar:16/9
[Parsed_overlay_4 @ 0x5e6277e4c300] main w:1280 h:720 fmt:yuv420p overlay w:1280 h:720 fmt:yuva420p
[Parsed_overlay_4 @ 0x5e6277e4c300] [framesync @ 0x5e6277de5928] Selected 1/600 time base
[Parsed_overlay_4 @ 0x5e6277e4c300] [framesync @ 0x5e6277de5928] Sync level 2
[Parsed_scale_0 @ 0x5e6277e4c740] w:848 h:480 fmt:yuv420p sar:0/1 -> w:1280 h:720 fmt:yuv420p sar:0/1 flags:0x00000004
    Last message repeated 2 times
[Parsed_scale_2 @ 0x5e6277e4db80] w:1920 h:1080 fmt:rgba sar:2835/2835 -> w:1280 h:720 fmt:yuva420p sar:1/1 flags:0x00000004
    Last message repeated 2 times
[libx264 @ 0x5e6278c60a00] using SAR=1/1
[libx264 @ 0x5e6278c60a00] using cpu capabilities: MMX2 SSE2Fast SSSE3 SSE4.2 AVX FMA3 BMI2 AVX2
[libx264 @ 0x5e6278c60a00] profile High, level 3.1, 4:2:0, 8-bit
[libx264 @ 0x5e6278c60a00] 264 - core 164 r3108 31e19f9 - H.264/MPEG-4 AVC codec - Copyleft 2003-2023 - http://www.videolan.org/x264.html - options: cabac=1 ref=1 deblock=1:0:0 analyse=0x3:0x113 me=hex subme=2 psy=1 psy_rd=1.00:0.00 mixed_ref=0 me_range=16 chroma_me=1 trellis=0 8x8dct=1 cqm=0 deadzone=21,11 fast_pskip=1 chroma_qp_offset=0 threads=22 lookahead_threads=5 sliced_threads=0 nr=0 decimate=1 interlaced=0 bluray_compat=0 constrained_intra=0 bframes=3 b_pyramid=2 b_adapt=1 b_bias=0 direct=1 weightb=1 open_gop=0 weightp=1 keyint=250 keyint_min=25 scenecut=40 intra_refresh=0 rc_lookahead=10 rc=crf mbtree=1 crf=18.0 qcomp=0.60 qpmin=0 qpmax=69 qpstep=4 ip_ratio=1.40 aq=1:1.00
Output #0, mp4, to '/var/www/html/project/media/video/watermarks/d834a2b9-374d-454f-8b03-dd9e32954dc0.mp4':
  Metadata:
    major_brand     : qt  
    minor_version   : 0
    compatible_brands: qt  
    com.apple.quicktime.creationdate: 2026-03-16T16:08:15+01:00
    encoder         : Lavf60.16.100
  Stream #0:0: Video: h264, 1 reference frame (avc1 / 0x31637661), yuv420p(tv, bt709, progressive, left), 1280x720 (0x0) [SAR 1:1 DAR 16:9], q=2-31, 30 fps, 15360 tbn
    Metadata:
      encoder         : Lavc60.31.102 libx264
    Side data:
      cpb: bitrate max/min/avg: 0/0/0 buffer size: 0 vbv_delay: N/A
  Stream #0:1(und): Audio: aac (LC) (mp4a / 0x6134706D), 44100 Hz, stereo, fltp, delay 1024, 128 kb/s (default)
    Metadata:
      creation_time   : 2026-03-16T16:04:31.000000Z
      handler_name    : Core Media Audio
      vendor_id       : [0][0][0][0]
      encoder         : Lavc60.31.102 aac
[vost#0:0/libx264 @ 0x5e6278c60640] Past duration 0.649986 too large
    Last message repeated 16 times
[vost#0:0/libx264 @ 0x5e6278c60640] Past duration 0.699989 too large
    Last message repeated 6 times
[in#0/mov,mp4,m4a,3gp,3g2,mj2 @ 0x5e6277ddfd80] EOF while reading input
[in#0/mov,mp4,m4a,3gp,3g2,mj2 @ 0x5e6277ddfd80] Terminating demuxer thread
[vost#0:0/libx264 @ 0x5e6278c60640] Past duration 0.649986 too large
    Last message repeated 1 times
[aist#0:0/aac @ 0x5e6277e06900] Decoder thread received EOF packet
[aist#0:0/aac @ 0x5e6277e06900] Decoder returned EOF, finishing
[aist#0:0/aac @ 0x5e6277e06900] Terminating decoder thread
[vist#0:1/h264 @ 0x5e6277dcb340] Decoder thread received EOF packet
[vist#0:1/h264 @ 0x5e6277dcb340] Decoder returned EOF, finishing
[vist#0:1/h264 @ 0x5e6277dcb340] Terminating decoder thread
[Parsed_overlay_4 @ 0x5e6277e4c300] [framesync @ 0x5e6277de5928] Sync level 0
[vost#0:0/libx264 @ 0x5e6278c60640] Past duration 0.649986 too large
    Last message repeated 14 times
No more output streams to write to, finishing.
[out#0/mp4 @ 0x5e6278c5f8c0] All streams finished
[out#0/mp4 @ 0x5e6278c5f8c0] Terminating muxer thread
[AVIOContext @ 0x5e6278dc6280] Statistics: 6750432 bytes written, 2 seeks, 29 writeouts
[out#0/mp4 @ 0x5e6278c5f8c0] Output file #0 (/var/www/html/project/media/video/watermarks/d834a2b9-374d-454f-8b03-dd9e32954dc0.mp4):
[out#0/mp4 @ 0x5e6278c5f8c0]   Output stream #0:0 (video): 554 frames encoded; 554 packets muxed (6429221 bytes); 
[out#0/mp4 @ 0x5e6278c5f8c0]   Output stream #0:1 (audio): 798 frames encoded (817152 samples); 799 packets muxed (300009 bytes); 
[out#0/mp4 @ 0x5e6278c5f8c0]   Total: 1353 packets (6729230 bytes) muxed
[out#0/mp4 @ 0x5e6278c5f8c0] video:6279kB audio:293kB subtitle:0kB other streams:0kB global headers:0kB muxing overhead: 0.315014%
frame=  554 fps=207 q=-1.0 Lsize=    6592kB time=00:00:18.50 bitrate=2918.1kbits/s speed=6.91x    
[AVIOContext @ 0x5e6277dd76c0] Statistics: 1199 bytes written, 0 seeks, 6 writeouts
[libx264 @ 0x5e6278c60a00] frame I:3     Avg QP:12.43  size: 76008
[libx264 @ 0x5e6278c60a00] frame P:191   Avg QP:15.40  size: 22409
[libx264 @ 0x5e6278c60a00] frame B:360   Avg QP:18.27  size:  5334
[libx264 @ 0x5e6278c60a00] consecutive B-frames:  9.6%  8.3%  9.2% 72.9%
[libx264 @ 0x5e6278c60a00] mb I  I16..4: 39.8% 20.2% 40.0%
[libx264 @ 0x5e6278c60a00] mb P  I16..4: 21.9%  7.5%  1.5%  P16..4: 29.6% 11.9%  7.2%  0.0%  0.0%    skip:20.4%
[libx264 @ 0x5e6278c60a00] mb B  I16..4:  1.7%  0.4%  0.0%  B16..8: 18.1%  6.6%  0.7%  direct:14.8%  skip:57.7%  L0:39.3% L1:45.3% BI:15.3%
[libx264 @ 0x5e6278c60a00] 8x8 transform intra:23.2% inter:27.8%
[libx264 @ 0x5e6278c60a00] coded y,uvDC,uvAC intra: 23.5% 44.8% 19.4% inter: 11.5% 22.6% 0.7%
[libx264 @ 0x5e6278c60a00] i16 v,h,dc,p: 52% 36%  9%  3%
[libx264 @ 0x5e6278c60a00] i8 v,h,dc,ddl,ddr,vr,hd,vl,hu: 17% 33% 35%  2%  2%  2%  3%  2%  4%
[libx264 @ 0x5e6278c60a00] i4 v,h,dc,ddl,ddr,vr,hd,vl,hu: 21% 30% 17%  4%  6%  6%  6%  4%  6%
[libx264 @ 0x5e6278c60a00] i8c dc,h,v,p: 52% 34% 11%  3%
[libx264 @ 0x5e6278c60a00] Weighted P-Frames: Y:7.9% UV:1.6%
[libx264 @ 0x5e6278c60a00] kb/s:2764.96
[aac @ 0x5e6278c62400] Qavg: 777.239
[in#0/mov,mp4,m4a,3gp,3g2,mj2 @ 0x5e6277ddfd80] Input file #0 (/var/www/html/project/media/video/original/d834a2b9-374d-454f-8b03-dd9e32954dc0.mov):
[in#0/mov,mp4,m4a,3gp,3g2,mj2 @ 0x5e6277ddfd80]   Input stream #0:0 (audio): 798 packets read (150183 bytes); 798 frames decoded; 0 decode errors (817152 samples); 
[in#0/mov,mp4,m4a,3gp,3g2,mj2 @ 0x5e6277ddfd80]   Input stream #0:1 (video): 554 packets read (2858739 bytes); 554 frames decoded; 0 decode errors; 
[in#0/mov,mp4,m4a,3gp,3g2,mj2 @ 0x5e6277ddfd80]   Total: 1352 packets (3008922 bytes) demuxed
[AVIOContext @ 0x5e6277de0200] Statistics: 34899310 bytes read, 967 seeks
[in#1/png_pipe @ 0x5e6277ee3000] Input file #1 (/var/www/html/project/static/images/templates/logo.png):
[in#1/png_pipe @ 0x5e6277ee3000]   Input stream #1:0 (video): 1 packets read (111578 bytes); 1 frames decoded; 0 decode errors; 
[in#1/png_pipe @ 0x5e6277ee3000]   Total: 1 packets (111578 bytes) demuxed
[AVIOContext @ 0x5e6277ee3100] Statistics: 111578 bytes read, 0 seeks
